<svg xmlns="http://www.w3.org/2000/svg" xmlns:xlink="http://www.w3.org/1999/xlink" preserveAspectRatio="xMidYMid" width="48" height="41" viewBox="0 0 48 41">
  <defs>
    <style>

      .cls-2 {
        fill: #ffffff;
      }
    </style>
  </defs>
  <path d="M25.401,21.815 C25.401,21.815 25.401,40.489 25.401,40.489 C25.401,40.489 47.212,40.489 47.212,40.489 C47.212,40.489 47.212,16.586 47.212,16.586 C47.212,16.586 38.398,16.586 38.398,16.586 C38.398,9.864 41.087,5.980 47.212,5.980 C47.212,5.980 47.212,0.004 47.212,0.004 C33.767,0.004 25.401,6.428 25.401,21.815 ZM0.005,21.815 C0.005,21.815 0.005,40.489 0.005,40.489 C0.005,40.489 21.816,40.489 21.816,40.489 C21.816,40.489 21.816,16.586 21.816,16.586 C21.816,16.586 13.002,16.586 13.002,16.586 C13.002,9.864 15.691,5.980 21.816,5.980 C21.816,5.980 21.816,0.004 21.816,0.004 C8.371,0.004 0.005,6.428 0.005,21.815 Z" id="path-1" class="cls-2" fill-rule="evenodd"/>
</svg>
